<?xml version="1.0" standalone="no"?><!DOCTYPE svg PUBLIC "-//W3C//DTD SVG 1.1//EN" "http://www.w3.org/Graphics/SVG/1.1/DTD/svg11.dtd"><svg t="1741917088691" class="icon" viewBox="0 0 1024 1024" version="1.1" xmlns="http://www.w3.org/2000/svg" p-id="1516" xmlns:xlink="http://www.w3.org/1999/xlink" width="200" height="200"><path d="M1024 160v704c0 88-72 160-160 160H160c-88 0-160-72-160-160V160C0 72 72 0 160 0h704c88 0 160 72 160 160z" fill="#AFD36F" p-id="1517"></path><path d="M1024 558.88V864c0 88-72 160-160 160H597.52L309.84 737.12l-40.72-75.36-17.52-179.68-38.24-38.8h140.64L573.36 636l15.52-27.52L314 368.8l109.12-155.04 180-0.4 35.36 28.16L696 291.36l24.72-17.52L1024 558.88z" fill="#9CC05B" p-id="1518"></path><path d="M748.8 614.08H611.12v-53.68l-70.16 125.04 70.16 125.12v-53.36h70.16c17.04 0 33.44-8.88 42.4-24.8l86.88-154.56c-12.8 22.48-36.4 36.56-61.76 36.24z m-98.56-215.2l70.48-125.04-45.12 26.96s-17.6-31.6-24.8-44.16c-9.84-17.44-28.4-28.8-48.08-28.48-19.68 0-38.24 11.04-48.08 28.8 0 0-16.16 28.48-32.24 57.6l32.88 58.24-45.36 26.32 140.32-0.24zM379.12 541.52l-68.96 122.32a74.52 74.52 0 0 0-0.32 73.28L222.96 582.48a51.056 51.056 0 0 1 0.32-50.32l35.2-62.24-45.12-26.72h140.64l70.16 125.12-45.04-26.8z m306.72 57.6l-70.16-125.12 120.64-71.44c27.44 49.36 62.4 111.28 62.4 111.28 10.16 17.44 10.16 39.28 0.32 57.04a55.544 55.544 0 0 1-48.4 28.24h-64.8z m-363.76 74.16s16.16-28.48 32.56-57.92h140.64v143.2H370.16a54.24 54.24 0 0 1-48.4-28.24 57.976 57.976 0 0 1 0.32-57.04zM542.48 249.6c-16.4 29.12-107.52 190.96-107.2 190.96L314 368.8s57.92-104.56 73.2-130c8.64-15.04 23.92-25.44 42.08-25.44h173.84c-25.44 0-47.84 13.52-60.64 36.24z" fill="#FFFFFF" p-id="1519"></path></svg>